<svg xmlns="http://www.w3.org/2000/svg" xmlns:xlink="http://www.w3.org/1999/xlink" width="500" zoomAndPan="magnify" viewBox="0 0 375 374.999991" height="500" preserveAspectRatio="xMidYMid meet" version="1.0"><defs><g/><clipPath id="c0ce5ff12c"><path d="M 56.488281 151.464844 L 318.238281 151.464844 L 318.238281 223.464844 L 56.488281 223.464844 Z M 56.488281 151.464844 " clip-rule="nonzero"/></clipPath><clipPath id="dcddaaaf78"><path d="M 63.558594 158.238281 L 187.332031 158.238281 L 187.332031 216.761719 L 63.558594 216.761719 Z M 63.558594 158.238281 " clip-rule="nonzero"/></clipPath></defs><g clip-path="url(#c0ce5ff12c)"><path stroke-linecap="butt" transform="matrix(0.750202, 0, 0, 0.749268, 56.489269, 151.465449)" fill="none" stroke-linejoin="miter" d="M -0.00131637 -0.000808127 L 348.904932 -0.000808127 L 348.904932 96.092952 L -0.00131637 96.092952 Z M -0.00131637 -0.000808127 " stroke="#000000" stroke-width="6" stroke-opacity="1" stroke-miterlimit="4"/></g><g clip-path="url(#dcddaaaf78)"><path fill="#1d3d59" d="M 63.558594 158.238281 L 187.332031 158.238281 L 187.332031 216.761719 L 63.558594 216.761719 Z M 63.558594 158.238281 " fill-opacity="1" fill-rule="nonzero"/></g><g fill="#fdfcf1" fill-opacity="1"><g transform="translate(90.759101, 196.618259)"><g><path d="M 3.203125 -19.671875 L 11.203125 -19.671875 C 13.285156 -19.671875 15.125 -19.253906 16.71875 -18.421875 C 18.3125 -17.585938 19.546875 -16.425781 20.421875 -14.9375 C 21.304688 -13.445312 21.75 -11.742188 21.75 -9.828125 C 21.75 -7.921875 21.304688 -6.222656 20.421875 -4.734375 C 19.546875 -3.242188 18.3125 -2.082031 16.71875 -1.25 C 15.125 -0.414062 13.285156 0 11.203125 0 L 3.203125 0 Z M 11.09375 -1.796875 C 12.820312 -1.796875 14.332031 -2.132812 15.625 -2.8125 C 16.914062 -3.5 17.914062 -4.445312 18.625 -5.65625 C 19.332031 -6.863281 19.6875 -8.253906 19.6875 -9.828125 C 19.6875 -11.398438 19.332031 -12.789062 18.625 -14 C 17.914062 -15.207031 16.914062 -16.15625 15.625 -16.84375 C 14.332031 -17.53125 12.820312 -17.875 11.09375 -17.875 L 5.28125 -17.875 L 5.28125 -1.796875 Z M 11.09375 -1.796875 "/></g></g></g><g fill="#fdfcf1" fill-opacity="1"><g transform="translate(116.086391, 196.618259)"><g><path d="M 11.75 0.171875 C 9.800781 0.171875 8.039062 -0.257812 6.46875 -1.125 C 4.90625 -1.988281 3.675781 -3.179688 2.78125 -4.703125 C 1.894531 -6.234375 1.453125 -7.941406 1.453125 -9.828125 C 1.453125 -11.722656 1.894531 -13.429688 2.78125 -14.953125 C 3.675781 -16.484375 4.910156 -17.675781 6.484375 -18.53125 C 8.054688 -19.394531 9.816406 -19.828125 11.765625 -19.828125 C 13.234375 -19.828125 14.582031 -19.582031 15.8125 -19.09375 C 17.050781 -18.613281 18.101562 -17.90625 18.96875 -16.96875 L 17.640625 -15.640625 C 16.109375 -17.203125 14.171875 -17.984375 11.828125 -17.984375 C 10.273438 -17.984375 8.859375 -17.625 7.578125 -16.90625 C 6.304688 -16.195312 5.3125 -15.222656 4.59375 -13.984375 C 3.875 -12.753906 3.515625 -11.367188 3.515625 -9.828125 C 3.515625 -8.296875 3.875 -6.910156 4.59375 -5.671875 C 5.3125 -4.441406 6.304688 -3.46875 7.578125 -2.75 C 8.859375 -2.039062 10.273438 -1.6875 11.828125 -1.6875 C 14.191406 -1.6875 16.128906 -2.472656 17.640625 -4.046875 L 18.96875 -2.71875 C 18.101562 -1.789062 17.046875 -1.078125 15.796875 -0.578125 C 14.554688 -0.078125 13.207031 0.171875 11.75 0.171875 Z M 11.75 0.171875 "/></g></g></g><g fill="#fdfcf1" fill-opacity="1"><g transform="translate(138.409333, 196.618259)"><g><path d="M 17.046875 -9.828125 L 19.046875 -9.828125 L 19.046875 -2.328125 C 18.128906 -1.523438 17.039062 -0.90625 15.78125 -0.46875 C 14.53125 -0.0390625 13.210938 0.171875 11.828125 0.171875 C 9.859375 0.171875 8.085938 -0.257812 6.515625 -1.125 C 4.941406 -1.988281 3.703125 -3.179688 2.796875 -4.703125 C 1.898438 -6.234375 1.453125 -7.941406 1.453125 -9.828125 C 1.453125 -11.722656 1.898438 -13.429688 2.796875 -14.953125 C 3.703125 -16.484375 4.941406 -17.675781 6.515625 -18.53125 C 8.085938 -19.394531 9.867188 -19.828125 11.859375 -19.828125 C 13.359375 -19.828125 14.734375 -19.585938 15.984375 -19.109375 C 17.242188 -18.640625 18.300781 -17.9375 19.15625 -17 L 17.875 -15.671875 C 16.3125 -17.210938 14.332031 -17.984375 11.9375 -17.984375 C 10.34375 -17.984375 8.90625 -17.628906 7.625 -16.921875 C 6.34375 -16.222656 5.335938 -15.25 4.609375 -14 C 3.878906 -12.757812 3.515625 -11.367188 3.515625 -9.828125 C 3.515625 -8.296875 3.878906 -6.910156 4.609375 -5.671875 C 5.335938 -4.441406 6.335938 -3.46875 7.609375 -2.75 C 8.890625 -2.039062 10.320312 -1.6875 11.90625 -1.6875 C 13.9375 -1.6875 15.648438 -2.191406 17.046875 -3.203125 Z M 17.046875 -9.828125 "/></g></g></g><g fill="#1d3d59" fill-opacity="1"><g transform="translate(192.00676, 197.562584)"><g><path d="M 11.703125 0.171875 C 9.765625 0.171875 8.015625 -0.253906 6.453125 -1.109375 C 4.890625 -1.972656 3.664062 -3.164062 2.78125 -4.6875 C 1.894531 -6.207031 1.453125 -7.910156 1.453125 -9.796875 C 1.453125 -11.679688 1.894531 -13.382812 2.78125 -14.90625 C 3.664062 -16.425781 4.890625 -17.613281 6.453125 -18.46875 C 8.023438 -19.332031 9.785156 -19.765625 11.734375 -19.765625 C 13.191406 -19.765625 14.535156 -19.519531 15.765625 -19.03125 C 16.992188 -18.550781 18.039062 -17.84375 18.90625 -16.90625 L 17.578125 -15.59375 C 16.046875 -17.144531 14.113281 -17.921875 11.78125 -17.921875 C 10.238281 -17.921875 8.832031 -17.566406 7.5625 -16.859375 C 6.289062 -16.148438 5.296875 -15.175781 4.578125 -13.9375 C 3.859375 -12.707031 3.5 -11.328125 3.5 -9.796875 C 3.5 -8.265625 3.859375 -6.882812 4.578125 -5.65625 C 5.296875 -4.425781 6.289062 -3.457031 7.5625 -2.75 C 8.832031 -2.039062 10.238281 -1.6875 11.78125 -1.6875 C 14.132812 -1.6875 16.066406 -2.46875 17.578125 -4.03125 L 18.90625 -2.71875 C 18.039062 -1.78125 16.988281 -1.0625 15.75 -0.5625 C 14.507812 -0.0703125 13.160156 0.171875 11.703125 0.171875 Z M 11.703125 0.171875 "/></g></g></g><g fill="#1d3d59" fill-opacity="1"><g transform="translate(212.133926, 197.562584)"><g><path d="M 15.484375 -5.234375 L 4.5625 -5.234375 L 2.21875 0 L 0.0625 0 L 9.015625 -19.59375 L 11.0625 -19.59375 L 20.015625 0 L 17.84375 0 Z M 14.734375 -6.921875 L 10.03125 -17.4375 L 5.3125 -6.921875 Z M 14.734375 -6.921875 "/></g></g></g><g fill="#1d3d59" fill-opacity="1"><g transform="translate(232.205106, 197.562584)"><g><path d="M 10.53125 -19.59375 C 13.03125 -19.59375 14.988281 -18.992188 16.40625 -17.796875 C 17.820312 -16.609375 18.53125 -14.96875 18.53125 -12.875 C 18.53125 -10.789062 17.820312 -9.15625 16.40625 -7.96875 C 14.988281 -6.78125 13.03125 -6.1875 10.53125 -6.1875 L 5.265625 -6.1875 L 5.265625 0 L 3.1875 0 L 3.1875 -19.59375 Z M 10.46875 -8.015625 C 12.414062 -8.015625 13.898438 -8.4375 14.921875 -9.28125 C 15.953125 -10.132812 16.46875 -11.332031 16.46875 -12.875 C 16.46875 -14.46875 15.953125 -15.6875 14.921875 -16.53125 C 13.898438 -17.382812 12.414062 -17.8125 10.46875 -17.8125 L 5.265625 -17.8125 L 5.265625 -8.015625 Z M 10.46875 -8.015625 "/></g></g></g><g fill="#1d3d59" fill-opacity="1"><g transform="translate(252.304279, 197.562584)"><g><path d="M 3.1875 -19.59375 L 5.265625 -19.59375 L 5.265625 0 L 3.1875 0 Z M 3.1875 -19.59375 "/></g></g></g><g fill="#1d3d59" fill-opacity="1"><g transform="translate(260.758245, 197.562584)"><g><path d="M 7 -17.8125 L 0.109375 -17.8125 L 0.109375 -19.59375 L 15.953125 -19.59375 L 15.953125 -17.8125 L 9.078125 -17.8125 L 9.078125 0 L 7 0 Z M 7 -17.8125 "/></g></g></g><g fill="#1d3d59" fill-opacity="1"><g transform="translate(276.826384, 197.562584)"><g><path d="M 15.484375 -5.234375 L 4.5625 -5.234375 L 2.21875 0 L 0.0625 0 L 9.015625 -19.59375 L 11.0625 -19.59375 L 20.015625 0 L 17.84375 0 Z M 14.734375 -6.921875 L 10.03125 -17.4375 L 5.3125 -6.921875 Z M 14.734375 -6.921875 "/></g></g></g><g fill="#1d3d59" fill-opacity="1"><g transform="translate(296.897564, 197.562584)"><g><path d="M 3.1875 -19.59375 L 5.265625 -19.59375 L 5.265625 -1.796875 L 16.234375 -1.796875 L 16.234375 0 L 3.1875 0 Z M 3.1875 -19.59375 "/></g></g></g></svg>