<svg xmlns="http://www.w3.org/2000/svg" xmlns:xlink="http://www.w3.org/1999/xlink" width="350" zoomAndPan="magnify" viewBox="0 0 262.5 73.499998" height="98" preserveAspectRatio="xMidYMid meet" version="1.0"><defs><g/><clipPath id="2e824f1ad5"><path d="M 0.875 0.710938 L 261.351562 0.710938 L 261.351562 72.359375 L 0.875 72.359375 Z M 0.875 0.710938 " clip-rule="nonzero"/></clipPath><clipPath id="843ee572d2"><path d="M 7.910156 7.449219 L 131.082031 7.449219 L 131.082031 65.691406 L 7.910156 65.691406 Z M 7.910156 7.449219 " clip-rule="nonzero"/></clipPath></defs><g clip-path="url(#2e824f1ad5)"><path stroke-linecap="butt" transform="matrix(0.746552, 0, 0, 0.745623, 0.876619, 0.711974)" fill="none" stroke-linejoin="miter" d="M -0.00216806 -0.00138985 L 348.904047 -0.00138985 L 348.904047 96.090649 L -0.00216806 96.090649 Z M -0.00216806 -0.00138985 " stroke="#000000" stroke-width="6" stroke-opacity="1" stroke-miterlimit="4"/></g><g clip-path="url(#843ee572d2)"><path fill="#1d3d59" d="M 7.910156 7.449219 L 131.082031 7.449219 L 131.082031 65.691406 L 7.910156 65.691406 Z M 7.910156 7.449219 " fill-opacity="1" fill-rule="nonzero"/></g><g fill="#fdfcf1" fill-opacity="1"><g transform="translate(34.979733, 45.645116)"><g><path d="M 3.1875 -19.5625 L 11.15625 -19.5625 C 13.21875 -19.5625 15.039062 -19.144531 16.625 -18.3125 C 18.21875 -17.488281 19.453125 -16.335938 20.328125 -14.859375 C 21.203125 -13.378906 21.640625 -11.6875 21.640625 -9.78125 C 21.640625 -7.882812 21.203125 -6.191406 20.328125 -4.703125 C 19.453125 -3.222656 18.21875 -2.066406 16.625 -1.234375 C 15.039062 -0.410156 13.21875 0 11.15625 0 L 3.1875 0 Z M 11.046875 -1.78125 C 12.753906 -1.78125 14.25 -2.117188 15.53125 -2.796875 C 16.820312 -3.484375 17.820312 -4.425781 18.53125 -5.625 C 19.238281 -6.832031 19.59375 -8.21875 19.59375 -9.78125 C 19.59375 -11.34375 19.238281 -12.722656 18.53125 -13.921875 C 17.820312 -15.128906 16.820312 -16.070312 15.53125 -16.75 C 14.25 -17.4375 12.753906 -17.78125 11.046875 -17.78125 L 5.25 -17.78125 L 5.25 -1.78125 Z M 11.046875 -1.78125 "/></g></g></g><g fill="#fdfcf1" fill-opacity="1"><g transform="translate(60.183807, 45.645116)"><g><path d="M 11.6875 0.171875 C 9.75 0.171875 8 -0.253906 6.4375 -1.109375 C 4.882812 -1.972656 3.664062 -3.160156 2.78125 -4.671875 C 1.894531 -6.191406 1.453125 -7.894531 1.453125 -9.78125 C 1.453125 -11.664062 1.894531 -13.363281 2.78125 -14.875 C 3.664062 -16.394531 4.890625 -17.582031 6.453125 -18.4375 C 8.023438 -19.300781 9.78125 -19.734375 11.71875 -19.734375 C 13.164062 -19.734375 14.503906 -19.488281 15.734375 -19 C 16.960938 -18.519531 18.007812 -17.816406 18.875 -16.890625 L 17.546875 -15.5625 C 16.023438 -17.113281 14.097656 -17.890625 11.765625 -17.890625 C 10.222656 -17.890625 8.816406 -17.535156 7.546875 -16.828125 C 6.273438 -16.117188 5.28125 -15.148438 4.5625 -13.921875 C 3.851562 -12.691406 3.5 -11.3125 3.5 -9.78125 C 3.5 -8.25 3.851562 -6.867188 4.5625 -5.640625 C 5.28125 -4.410156 6.273438 -3.441406 7.546875 -2.734375 C 8.816406 -2.023438 10.222656 -1.671875 11.765625 -1.671875 C 14.117188 -1.671875 16.046875 -2.457031 17.546875 -4.03125 L 18.875 -2.71875 C 18.007812 -1.78125 16.957031 -1.0625 15.71875 -0.5625 C 14.476562 -0.0703125 13.132812 0.171875 11.6875 0.171875 Z M 11.6875 0.171875 "/></g></g></g><g fill="#fdfcf1" fill-opacity="1"><g transform="translate(82.398148, 45.645116)"><g><path d="M 16.96875 -9.78125 L 18.953125 -9.78125 L 18.953125 -2.3125 C 18.035156 -1.519531 16.953125 -0.90625 15.703125 -0.46875 C 14.460938 -0.0390625 13.148438 0.171875 11.765625 0.171875 C 9.804688 0.171875 8.046875 -0.253906 6.484375 -1.109375 C 4.921875 -1.972656 3.691406 -3.160156 2.796875 -4.671875 C 1.898438 -6.191406 1.453125 -7.894531 1.453125 -9.78125 C 1.453125 -11.664062 1.898438 -13.363281 2.796875 -14.875 C 3.691406 -16.394531 4.921875 -17.582031 6.484375 -18.4375 C 8.046875 -19.300781 9.816406 -19.734375 11.796875 -19.734375 C 13.285156 -19.734375 14.65625 -19.492188 15.90625 -19.015625 C 17.15625 -18.546875 18.207031 -17.84375 19.0625 -16.90625 L 17.78125 -15.59375 C 16.226562 -17.125 14.257812 -17.890625 11.875 -17.890625 C 10.289062 -17.890625 8.859375 -17.539062 7.578125 -16.84375 C 6.304688 -16.144531 5.304688 -15.175781 4.578125 -13.9375 C 3.859375 -12.695312 3.5 -11.3125 3.5 -9.78125 C 3.5 -8.25 3.859375 -6.867188 4.578125 -5.640625 C 5.304688 -4.410156 6.300781 -3.441406 7.5625 -2.734375 C 8.832031 -2.023438 10.265625 -1.671875 11.859375 -1.671875 C 13.867188 -1.671875 15.570312 -2.175781 16.96875 -3.1875 Z M 16.96875 -9.78125 "/></g></g></g><g fill="#1d3d59" fill-opacity="1"><g transform="translate(135.734825, 46.584853)"><g><path d="M 11.640625 0.171875 C 9.710938 0.171875 7.972656 -0.253906 6.421875 -1.109375 C 4.867188 -1.960938 3.648438 -3.144531 2.765625 -4.65625 C 1.890625 -6.175781 1.453125 -7.875 1.453125 -9.75 C 1.453125 -11.625 1.890625 -13.316406 2.765625 -14.828125 C 3.648438 -16.347656 4.875 -17.535156 6.4375 -18.390625 C 8 -19.242188 9.742188 -19.671875 11.671875 -19.671875 C 13.117188 -19.671875 14.457031 -19.425781 15.6875 -18.9375 C 16.914062 -18.457031 17.957031 -17.753906 18.8125 -16.828125 L 17.5 -15.515625 C 15.976562 -17.054688 14.054688 -17.828125 11.734375 -17.828125 C 10.191406 -17.828125 8.785156 -17.472656 7.515625 -16.765625 C 6.253906 -16.066406 5.265625 -15.101562 4.546875 -13.875 C 3.835938 -12.644531 3.484375 -11.269531 3.484375 -9.75 C 3.484375 -8.226562 3.835938 -6.851562 4.546875 -5.625 C 5.265625 -4.394531 6.253906 -3.425781 7.515625 -2.71875 C 8.785156 -2.019531 10.191406 -1.671875 11.734375 -1.671875 C 14.066406 -1.671875 15.988281 -2.453125 17.5 -4.015625 L 18.8125 -2.703125 C 17.957031 -1.773438 16.910156 -1.0625 15.671875 -0.5625 C 14.429688 -0.0703125 13.085938 0.171875 11.640625 0.171875 Z M 11.640625 0.171875 "/></g></g></g><g fill="#1d3d59" fill-opacity="1"><g transform="translate(155.764073, 46.584853)"><g><path d="M 15.40625 -5.203125 L 4.546875 -5.203125 L 2.203125 0 L 0.0625 0 L 8.96875 -19.5 L 11 -19.5 L 19.921875 0 L 17.75 0 Z M 14.65625 -6.875 L 9.96875 -17.359375 L 5.296875 -6.875 Z M 14.65625 -6.875 "/></g></g></g><g fill="#1d3d59" fill-opacity="1"><g transform="translate(175.737608, 46.584853)"><g><path d="M 10.46875 -19.5 C 12.957031 -19.5 14.90625 -18.90625 16.3125 -17.71875 C 17.726562 -16.53125 18.4375 -14.894531 18.4375 -12.8125 C 18.4375 -10.726562 17.726562 -9.097656 16.3125 -7.921875 C 14.90625 -6.742188 12.957031 -6.15625 10.46875 -6.15625 L 5.234375 -6.15625 L 5.234375 0 L 3.171875 0 L 3.171875 -19.5 Z M 10.421875 -7.96875 C 12.347656 -7.96875 13.820312 -8.390625 14.84375 -9.234375 C 15.863281 -10.078125 16.375 -11.269531 16.375 -12.8125 C 16.375 -14.394531 15.863281 -15.609375 14.84375 -16.453125 C 13.820312 -17.296875 12.347656 -17.71875 10.421875 -17.71875 L 5.234375 -17.71875 L 5.234375 -7.96875 Z M 10.421875 -7.96875 "/></g></g></g><g fill="#1d3d59" fill-opacity="1"><g transform="translate(195.739, 46.584853)"><g><path d="M 3.171875 -19.5 L 5.234375 -19.5 L 5.234375 0 L 3.171875 0 Z M 3.171875 -19.5 "/></g></g></g><g fill="#1d3d59" fill-opacity="1"><g transform="translate(204.151837, 46.584853)"><g><path d="M 6.96875 -17.71875 L 0.109375 -17.71875 L 0.109375 -19.5 L 15.875 -19.5 L 15.875 -17.71875 L 9.03125 -17.71875 L 9.03125 0 L 6.96875 0 Z M 6.96875 -17.71875 "/></g></g></g><g fill="#1d3d59" fill-opacity="1"><g transform="translate(220.141806, 46.584853)"><g><path d="M 15.40625 -5.203125 L 4.546875 -5.203125 L 2.203125 0 L 0.0625 0 L 8.96875 -19.5 L 11 -19.5 L 19.921875 0 L 17.75 0 Z M 14.65625 -6.875 L 9.96875 -17.359375 L 5.296875 -6.875 Z M 14.65625 -6.875 "/></g></g></g><g fill="#1d3d59" fill-opacity="1"><g transform="translate(240.115341, 46.584853)"><g><path d="M 3.171875 -19.5 L 5.234375 -19.5 L 5.234375 -1.78125 L 16.15625 -1.78125 L 16.15625 0 L 3.171875 0 Z M 3.171875 -19.5 "/></g></g></g></svg>